<?xml version="1.0" encoding="UTF-8" standalone="no"?>
<svg xmlns:dc="http://purl.org/dc/elements/1.1/" 
   xmlns:cc="http://creativecommons.org/ns#" 
   xmlns:rdf="http://www.w3.org/1999/02/22-rdf-syntax-ns#" 
   xmlns:svg="http://www.w3.org/2000/svg" 
   xmlns="http://www.w3.org/2000/svg" 
   xmlns:xlink="http://www.w3.org/1999/xlink" style="overflow:hidden" id="svg46" version="1.1" overflow="hidden" height="1830.9875" width="1888.223">
   <defs id="defs38">
      <linearGradient id="linearGradient4784">
         <stop id="stop4780" offset="0" style="stop-color:#2db6ed;stop-opacity:1;" />
         <stop id="stop4782" offset="1" style="stop-color:#2db6ed;stop-opacity:0;" />
      </linearGradient>
      <linearGradient id="linearGradient4763">
         <stop id="stop4759" offset="0" style="stop-color:#2cb5ec;stop-opacity:1" />
         <stop id="stop4761" offset="1" style="stop-color:#000000;stop-opacity:0;" />
      </linearGradient>
      <clipPath id="clip0">
         <path style="clip-rule:evenodd;fill-rule:evenodd" id="path31" d="m 266,-1 h 749 V 721 H 266 Z" />
      </clipPath>
      <clipPath id="clip2">
         <path style="clip-rule:evenodd;fill-rule:evenodd" id="path35" d="M 0,0 H 720 V 720 H 0 Z" />
      </clipPath>
      <linearGradient y2="793.44763" x2="916.39417" y1="11.731172" x1="16.102774" gradientUnits="userSpaceOnUse" id="linearGradient4778" xlink:href="#linearGradient4763" />
      <linearGradient gradientUnits="userSpaceOnUse" y2="402.58939" x2="916.89417" y1="402.58939" x1="15.602774" id="linearGradient4786" xlink:href="#linearGradient4784" />
      <linearGradient gradientTransform="translate(-1156.4719,-311.80824)" y2="793.44763" x2="916.39417" y1="11.731172" x1="16.102774" gradientUnits="userSpaceOnUse" id="linearGradient4803" xlink:href="#linearGradient4763" />
      <filter id="filter4793" style="color-interpolation-filters:sRGB">
         <feFlood id="feFlood4783" result="flood" flood-color="rgb(0,0,0)" flood-opacity="0.498039" />
         <feComposite id="feComposite4785" result="composite1" operator="in" in2="SourceGraphic" in="flood" />
         <feGaussianBlur id="feGaussianBlur4787" result="blur" stdDeviation="7" in="composite1" />
         <feOffset id="feOffset4789" result="offset" dy="6" dx="6" />
         <feComposite id="feComposite4791" result="composite2" operator="over" in2="offset" in="SourceGraphic" />
      </filter>
   </defs>
   <g style="fill:none;stroke:#ffffff;stroke-opacity:1;filter:url(#filter4793)" transform="matrix(2.2020794,0,0,2.2020794,106.58023,57.617831)" id="g4743">
      <path style="fill:none;stroke:#ffffff;stroke-width:12.2733;stroke-linecap:round;stroke-linejoin:miter;stroke-miterlimit:4;stroke-dasharray:none;stroke-opacity:1" d="M 533.08961,736.0258 517.66755,572.3205 439.16653,415.3185 535.23421,243.6776 737.61679,43.1249 532.8554,100.2165 390.12627,188.5988 320.04261,64.3512 246.11625,74.9644 198.75499,109.04813 182.80307,120.528 23.056243,140.1075 l 116.196147,30.9246 127.17531,71.9135 33.48645,214.4597 73.19442,54.8958 43.18471,126.2604 z" id="path86" />
      <path style="fill:none;stroke:#ffffff;stroke-width:12.2733;stroke-linecap:round;stroke-linejoin:miter;stroke-miterlimit:4;stroke-dasharray:none;stroke-opacity:1" d="m 182.80307,120.528 92.22497,27.2191" id="path96" />
      <path style="fill:none;stroke:#ffffff;stroke-width:12.2733;stroke-linecap:round;stroke-linejoin:miter;stroke-miterlimit:4;stroke-dasharray:none;stroke-opacity:1" d="m 246.11625,74.9644 28.91179,72.7827" id="path98" />
      <path style="fill:none;stroke:#ffffff;stroke-width:12.2733;stroke-linecap:round;stroke-linejoin:miter;stroke-miterlimit:4;stroke-dasharray:none;stroke-opacity:1" d="m 320.04261,64.3512 -45.01457,83.3959" id="path100" />
      <path style="fill:none;stroke:#ffffff;stroke-width:12.2733;stroke-linecap:round;stroke-linejoin:miter;stroke-miterlimit:4;stroke-dasharray:none;stroke-opacity:1" d="M 390.12627,188.5988 275.02804,147.7471" id="path102" />
      <path style="fill:none;stroke:#ffffff;stroke-width:12.2733;stroke-linecap:round;stroke-linejoin:miter;stroke-miterlimit:4;stroke-dasharray:none;stroke-opacity:1" d="m 139.25239,171.0321 135.77565,-23.285" id="path104" />
      <path style="fill:none;stroke:#ffffff;stroke-width:12.2733;stroke-linecap:round;stroke-linejoin:miter;stroke-miterlimit:4;stroke-dasharray:none;stroke-opacity:1" d="M 139.25239,171.0321 182.80307,120.528" id="path106" />
      <path style="fill:none;stroke:#ffffff;stroke-width:12.0858;stroke-linecap:round;stroke-linejoin:round;stroke-miterlimit:4;stroke-dasharray:none;stroke-opacity:1" d="M 275.83404,147.7471 267.29392,240.71 390.12627,187.63945" id="path108" />
      <path style="fill:none;stroke:#ffffff;stroke-width:12.2733;stroke-linecap:round;stroke-linejoin:miter;stroke-miterlimit:4;stroke-dasharray:none;stroke-opacity:1" d="m 266.4277,242.9456 84.47983,106.4608" id="path110" />
      <path style="fill:none;stroke:#ffffff;stroke-width:12.2733;stroke-linecap:round;stroke-linejoin:miter;stroke-miterlimit:4;stroke-dasharray:none;stroke-opacity:1" d="M 390.12627,188.5988 350.90753,349.4064" id="path112" />
      <path style="fill:none;stroke:#ffffff;stroke-width:12.2733;stroke-linecap:round;stroke-linejoin:miter;stroke-miterlimit:4;stroke-dasharray:none;stroke-opacity:1" d="M 532.8554,100.2165 350.90753,349.4064" id="path114" />
      <path style="fill:none;stroke:#ffffff;stroke-width:12.2733;stroke-linecap:round;stroke-linejoin:miter;stroke-miterlimit:4;stroke-dasharray:none;stroke-opacity:1" d="M 737.61679,43.1249 350.90753,349.4064 299.91415,457.4053" id="path116" />
      <path style="fill:none;stroke:#ffffff;stroke-width:12.2733;stroke-linecap:round;stroke-linejoin:miter;stroke-miterlimit:4;stroke-dasharray:none;stroke-opacity:1" d="m 373.10857,512.3011 -22.20104,-162.8947 88.259,65.9121" id="path118" />
      <path style="fill:none;stroke:#ffffff;stroke-width:12.2733;stroke-linecap:round;stroke-linejoin:miter;stroke-miterlimit:4;stroke-dasharray:none;stroke-opacity:1" d="M 350.90753,349.4064 535.23421,243.6776" id="path120" />
      <path style="fill:none;stroke:#ffffff;stroke-width:12.2733;stroke-linecap:round;stroke-linejoin:miter;stroke-miterlimit:4;stroke-dasharray:none;stroke-opacity:1" d="m 373.10857,512.3011 66.05796,-96.9826" id="path122" />
      <path style="fill:none;stroke:#ffffff;stroke-width:12.2733;stroke-linecap:round;stroke-linejoin:miter;stroke-miterlimit:4;stroke-dasharray:none;stroke-opacity:1" d="m 373.10857,512.3011 79.50003,71.3025" id="path124" />
      <path style="fill:none;stroke:#ffffff;stroke-width:12.2733;stroke-linecap:round;stroke-linejoin:miter;stroke-miterlimit:4;stroke-dasharray:none;stroke-opacity:1" d="M 439.16653,415.3185 452.6086,583.6036" id="path126" />
      <path style="fill:none;stroke:#ffffff;stroke-width:12.2733;stroke-linecap:round;stroke-linejoin:miter;stroke-miterlimit:4;stroke-dasharray:none;stroke-opacity:1" d="M 533.08961,736.0258 452.6086,583.6036 416.29328,638.5615" id="path128" />
      <path style="fill:none;stroke:#ffffff;stroke-width:12.2733;stroke-linecap:round;stroke-linejoin:miter;stroke-miterlimit:4;stroke-dasharray:none;stroke-opacity:1" d="m 452.6086,583.6036 65.05895,-11.2831" id="path130" />
      <path style="opacity:0;fill:none;fill-opacity:1;stroke:#ffffff;stroke-width:12.2733;stroke-linecap:round;stroke-miterlimit:4;stroke-dasharray:none;stroke-opacity:1" d="m 416.38983,637.1875 c 0,-0.045 -9.43422,-27.6655 -20.96493,-61.3785 -11.5307,-33.713 -20.94873,-61.3373 -20.92894,-61.3874 0.0281,-0.071 76.18754,68.143 77.12385,69.0778 0.22009,0.2197 -0.51457,1.3559 -17.37877,26.8769 -9.68472,14.6562 -17.66317,26.7029 -17.7299,26.7705 -0.0667,0.068 -0.12131,0.086 -0.12131,0.041 z" id="path4654" />
      <path style="opacity:0;fill:none;fill-opacity:1;stroke:#ffffff;stroke-width:12.2733;stroke-linecap:round;stroke-miterlimit:4;stroke-dasharray:none;stroke-opacity:1" d="m 413.0236,547.3451 c -21.3839,-19.1754 -38.93273,-34.9427 -38.99738,-35.0385 -0.0845,-0.1251 8.99717,-13.5568 32.28298,-47.7465 26.80833,-39.3616 32.40754,-47.5103 32.44118,-47.2129 0.0701,0.6198 13.18928,164.8137 13.1707,164.8386 -0.01,0.013 -17.51357,-15.6653 -38.89748,-34.8407 z" id="path4656" />
      <path style="opacity:0;fill:none;fill-opacity:1;stroke:#ffffff;stroke-width:12.2733;stroke-linecap:round;stroke-miterlimit:4;stroke-dasharray:none;stroke-opacity:1" d="m 373.43622,510.6306 c -0.002,-0.059 -4.89718,-36.0074 -10.87762,-79.8846 -5.98043,-43.8772 -10.85673,-79.8271 -10.83621,-79.8886 0.0321,-0.096 86.08022,64.0672 86.49074,64.4935 0.11553,0.1199 -7.30333,11.0975 -32.03005,47.3945 -17.69922,25.9811 -32.30694,47.4082 -32.46158,47.6158 -0.15465,0.2075 -0.28302,0.3288 -0.28528,0.2694 z" id="path4660" />
      <path style="opacity:0;fill:none;fill-opacity:1;stroke:#ffffff;stroke-width:12.2733;stroke-linecap:round;stroke-miterlimit:4;stroke-dasharray:none;stroke-opacity:1" d="m 336.5235,484.1628 c -19.69484,-14.7744 -35.80987,-26.9208 -35.81117,-26.992 -0.005,-0.2827 49.88493,-105.7739 49.9211,-105.5567 0.0982,0.5893 21.73339,159.3849 21.71722,159.3973 -0.0101,0.01 -16.13231,-12.0741 -35.82715,-26.8486 z" id="path4662" />
      <path style="opacity:0;fill:none;fill-opacity:1;stroke:#ffffff;stroke-width:12.2733;stroke-linecap:round;stroke-miterlimit:4;stroke-dasharray:none;stroke-opacity:1" d="m 300.15098,455.1652 c -0.0863,-0.2497 -32.82753,-210.0371 -32.78587,-210.0736 0.0684,-0.06 82.83948,104.3648 82.81275,104.4773 -0.0321,0.1352 -49.35851,104.6267 -49.72581,105.3376 -0.16289,0.3152 -0.25436,0.3939 -0.30107,0.2587 z" id="path4664" />
      <path style="opacity:0;fill:none;fill-opacity:1;stroke:#ffffff;stroke-width:12.2733;stroke-linecap:round;stroke-miterlimit:4;stroke-dasharray:none;stroke-opacity:1" d="m 309.18965,295.9263 c -22.77276,-28.7005 -41.50383,-52.318 -41.62459,-52.4833 l -0.21958,-0.3006 0.95085,-0.4089 c 0.52297,-0.2249 27.92461,-12.2596 60.89253,-26.7439 32.96792,-14.4843 59.97058,-26.3061 60.0059,-26.2708 0.0573,0.057 -38.33062,157.6958 -38.52194,158.1889 -0.0535,0.1378 -13.16008,-16.2858 -41.48317,-51.9814 z" id="path4666" />
      <path style="opacity:0;fill:none;fill-opacity:1;stroke:#ffffff;stroke-width:12.2733;stroke-linecap:round;stroke-miterlimit:4;stroke-dasharray:none;stroke-opacity:1" d="m 395.62289,381.9555 c -23.78594,-17.757 -43.24689,-32.3678 -43.24657,-32.4685 8.1e-4,-0.255 180.42528,-103.6703 180.58708,-103.5085 0.11169,0.1117 -93.55946,167.7286 -93.95409,168.1233 -0.0766,0.077 -19.60049,-14.3892 -43.38642,-32.1463 z" id="path4672" />
      <path style="opacity:0;fill:none;fill-opacity:1;stroke:#ffffff;stroke-width:12.2733;stroke-linecap:round;stroke-miterlimit:4;stroke-dasharray:none;stroke-opacity:1" d="m 360.60824,342.5873 c 1.86019,-1.6705 364.77696,-288.8237 364.88785,-288.7128 0.0818,0.082 -42.79835,42.7073 -95.28925,94.7232 l -95.43801,94.5744 -86.94389,49.8637 c -47.81914,27.4251 -87.0835,49.8637 -87.25413,49.8637 -0.17064,0 -0.15379,-0.1404 0.0374,-0.3122 z" id="path4674" />
      <path style="opacity:0;fill:none;fill-opacity:1;stroke:#ffffff;stroke-width:12.2733;stroke-linecap:round;stroke-miterlimit:4;stroke-dasharray:none;stroke-opacity:1" d="m 356.97964,342.2551 c 1.18052,-1.6111 41.33178,-56.5986 89.22501,-122.1945 l 87.0786,-119.2651 21.43213,-5.9716 c 11.78767,-3.2843 36.9951,-10.3115 56.0165,-15.6158 19.0214,-5.3044 54.41854,-15.1751 78.66032,-21.935 24.24178,-6.7598 44.18546,-12.2459 44.31934,-12.1913 0.23305,0.095 -377.82838,299.6861 -378.53542,299.9666 -0.1886,0.075 0.62299,-1.1822 1.80352,-2.7933 z" id="path4676" />
      <path style="opacity:0;fill:none;fill-opacity:1;stroke:#ffffff;stroke-width:12.2733;stroke-linecap:round;stroke-miterlimit:4;stroke-dasharray:none;stroke-opacity:1" d="m 352.72154,345.2061 c 0,-0.2209 8.54548,-35.4391 18.98996,-78.2625 11.64046,-47.7271 19.18272,-77.9771 19.48802,-78.1612 0.27393,-0.1653 31.54163,-19.5449 69.48379,-43.0659 37.94216,-23.521 69.03704,-42.7295 69.09974,-42.6856 0.10606,0.074 -176.01654,241.4642 -176.73499,242.2292 -0.20423,0.2174 -0.32652,0.1972 -0.32652,-0.054 z" id="path4678" />
      <path style="opacity:0;fill:none;fill-opacity:0.8;stroke:#ffffff;stroke-width:12.2733;stroke-linecap:round;stroke-miterlimit:4;stroke-dasharray:none;stroke-opacity:1" d="m 267.29392,240.71 c 0.0916,-0.6587 1.9784,-21.4541 4.19294,-46.2122 2.21455,-24.758 4.06495,-45.197 4.112,-45.42 0.0494,-0.2344 23.71744,7.9885 56.07928,19.4833 30.79656,10.9388 56.13389,19.9376 56.30519,19.9973 0.17129,0.06 -26.83745,12.028 -60.01943,26.5961 -33.18198,14.5682 -60.44464,26.5473 -60.58368,26.6204 -0.13904,0.073 -0.17787,-0.4062 -0.0863,-1.0649 z" id="path4680" />
      <path style="opacity:0;fill:none;fill-opacity:1;stroke:#ffffff;stroke-width:12.2733;stroke-linecap:round;stroke-miterlimit:4;stroke-dasharray:none;stroke-opacity:1" d="m 331.94062,167.2523 c -30.45092,-10.8261 -55.46283,-19.7814 -55.58205,-19.9006 -0.11921,-0.1193 9.64392,-18.493 21.69586,-40.8307 12.05193,-22.3376 22.02016,-40.5012 22.15161,-40.3636 0.33449,0.3502 68.01479,120.3968 68.01479,120.6399 0,0.109 -0.20585,0.1848 -0.45746,0.1685 -0.25161,-0.016 -25.37185,-8.8874 -55.82275,-19.7135 z" id="path4682" />
      <path style="opacity:0;fill:none;fill-opacity:1;stroke:#ffffff;stroke-width:12.2733;stroke-linecap:round;stroke-miterlimit:4;stroke-dasharray:none;stroke-opacity:1" d="m 203.42322,206.5373 c -34.30898,-19.4033 -62.17957,-35.2787 -61.93465,-35.2787 0.24492,0 30.19981,-5.1015 66.56643,-11.3368 36.36662,-6.2353 66.14728,-11.2994 66.17925,-11.2537 0.0513,0.073 -8.04125,89.7239 -8.32079,92.1791 -0.10656,0.9359 -2.22126,-0.2251 -62.49024,-34.3099 z" id="path4684" />
      <path style="opacity:0;fill:none;fill-opacity:1;stroke:#ffffff;stroke-width:12.2733;stroke-linecap:round;stroke-miterlimit:4;stroke-dasharray:none;stroke-opacity:1" d="m 141.55563,169.6057 c 0,-0.3555 41.07497,-47.8093 41.5357,-47.9861 0.45772,-0.1757 87.58801,25.3634 88.10916,25.8259 0.22959,0.2038 -127.82735,22.3602 -129.18739,22.352 -0.25161,0 -0.45747,-0.088 -0.45747,-0.1918 z" id="path4686" />
      <path style="opacity:0;fill:none;fill-opacity:1;stroke:#ffffff;stroke-width:12.2733;stroke-linecap:round;stroke-miterlimit:4;stroke-dasharray:none;stroke-opacity:1" d="m 229.38894,133.566 c -24.2548,-7.1685 -44.2944,-13.1072 -44.53245,-13.197 -0.23804,-0.09 13.30344,-10.0447 30.09218,-22.1218 16.78873,-12.0771 30.65255,-21.8915 30.80848,-21.8099 0.32983,0.1727 27.96165,69.6447 27.8238,69.9547 -0.0508,0.1142 -19.93721,-5.6575 -44.19201,-12.826 z" id="path4688" />
      <path style="opacity:0;fill:none;fill-opacity:1;stroke:#ffffff;stroke-width:12.2733;stroke-linecap:round;stroke-miterlimit:4;stroke-dasharray:none;stroke-opacity:1" d="M 264.34451,119.0212 C 258.52703,104.3749 252.26166,88.5877 250.42145,83.9385 l -3.34582,-8.4532 35.80525,-5.1134 c 19.69289,-2.8124 35.80525,-5.0752 35.80525,-5.0284 0,0.3401 -43.25096,80.1351 -43.47629,80.2107 -0.15845,0.053 -5.04785,-11.8867 -10.86533,-26.533 z" id="path4690" />
      <path style="opacity:0;fill:none;fill-opacity:1;stroke:#ffffff;stroke-width:12.2733;stroke-linecap:round;stroke-miterlimit:4;stroke-dasharray:none;stroke-opacity:1" d="m 82.305416,155.2201 -55.77348,-14.8861 3.622455,-0.4391 c 1.992349,-0.2414 36.703994,-4.4891 77.136989,-9.4391 40.43299,-4.9501 73.55175,-8.952 73.59725,-8.8933 0.21995,0.2842 -41.6991,48.4237 -42.215,48.4795 -0.3271,0.035 -25.6928,-6.6345 -56.368214,-14.8219 z" id="path4692" />
      <path style="opacity:0;fill:none;fill-opacity:1;stroke:#ffffff;stroke-width:12.2733;stroke-linecap:round;stroke-miterlimit:4;stroke-dasharray:none;stroke-opacity:1" d="m 453.20166,582.1538 c -0.19098,-0.6275 -13.04438,-162.4905 -12.91361,-162.6213 0.0576,-0.058 17.25051,34.1874 38.20651,76.1 l 38.10181,76.2047 -31.15878,5.3934 c -17.13734,2.9663 -31.36982,5.3905 -31.62774,5.387 -0.25792,0 -0.53161,-0.2122 -0.60819,-0.4638 z" id="path4696" />
      <path style="opacity:0;fill:none;fill-opacity:1;stroke:#ffffff;stroke-width:12.2733;stroke-linecap:round;stroke-miterlimit:4;stroke-dasharray:none;stroke-opacity:1" d="m 492.75526,658.1823 c -21.46734,-40.6588 -38.99099,-73.9681 -38.94144,-74.0206 0.19793,-0.2101 62.97939,-10.9896 63.1316,-10.8397 0.21698,0.2138 15.03302,157.1133 14.92511,158.0547 -0.0461,0.4018 -17.64794,-32.5356 -39.11527,-73.1944 z" id="path4698" />
      <path style="opacity:0;fill:none;fill-opacity:1;stroke:#ffffff;stroke-width:12.2733;stroke-linecap:round;stroke-miterlimit:4;stroke-dasharray:none;stroke-opacity:1" d="M 505.59917,712.2323 C 492.20241,701.0237 466.83432,679.8295 449.22563,665.134 l -32.01579,-26.719 17.58049,-26.6175 c 9.66927,-14.6397 17.66284,-26.6146 17.76348,-26.611 0.10065,0 16.48705,30.9062 36.41423,68.6725 19.92718,37.7663 37.43513,70.9461 38.90656,73.7329 1.47142,2.7869 2.54189,5.0564 2.37881,5.0433 -0.16307,-0.013 -11.25748,-9.1943 -24.65424,-20.4029 z" id="path4702" />
   </g>
</svg>
